<svg width="120" height="19" viewBox="0 0 120 19" fill="none" xmlns="http://www.w3.org/2000/svg">
<g clip-path="url(#clip0_130_53)">
<mask id="mask0_130_53" style="mask-type:luminance" maskUnits="userSpaceOnUse" x="0" y="0" width="19" height="19">
<path d="M9.52952 18.5295C14.5164 18.5295 18.559 14.4868 18.559 9.49998C18.559 4.51311 14.5164 0.470459 9.52952 0.470459C4.54265 0.470459 0.5 4.51311 0.5 9.49998C0.5 14.4868 4.54265 18.5295 9.52952 18.5295Z" fill="white"/>
</mask>
<g mask="url(#mask0_130_53)">
<path d="M18.453 9.44678C18.4868 9.4671 18.532 9.44001 18.532 9.40163C18.4801 4.46926 14.4665 0.487244 9.52506 0.487244C7.9178 0.487244 6.40987 0.909373 5.10511 1.64754C5.07125 1.66785 5.07125 1.71752 5.10511 1.73783L18.4552 9.44452L18.453 9.44678Z" fill="#FC1C49"/>
<path d="M1.76634 5.07349C1.74602 5.03963 1.69636 5.03963 1.67604 5.07349C0.940134 6.38051 0.515747 7.88844 0.515747 9.4957C0.515747 14.4394 4.49776 18.4507 9.42788 18.5026C9.46851 18.5026 9.49334 18.4597 9.47303 18.4236L1.76634 5.07349Z" fill="#FC1C49"/>
<path d="M3.4325 3.44005L11.918 18.1378C11.9293 18.1582 11.9541 18.1672 11.9767 18.1627C14.9767 17.3139 17.3402 14.9527 18.189 11.9504C18.1958 11.9278 18.1845 11.903 18.1642 11.8917L3.46862 3.40393C3.44604 3.39039 3.42121 3.41522 3.43476 3.43779L3.4325 3.44005Z" fill="#FC1C49"/>
</g>
<path d="M26.767 5.95365V8.67153H31.2208V10.8318H26.767V15.254H24.5073V3.79108H31.354V5.95365H26.7692H26.767Z" fill="black"/>
<path d="M41.4489 7.06582V15.2533H39.336V14.2872C38.7469 15.0231 37.862 15.4836 36.6655 15.4836C34.4872 15.4836 32.6858 13.6009 32.6858 11.1607C32.6858 8.72048 34.4872 6.83783 36.6655 6.83783C37.862 6.83783 38.7469 7.29608 39.336 8.03424V7.06808H41.4489V7.06582ZM39.336 11.1607C39.336 9.78371 38.3699 8.85141 37.0606 8.85141C35.7513 8.85141 34.801 9.78371 34.801 11.1607C34.801 12.5377 35.7671 13.47 37.0606 13.47C38.3541 13.47 39.336 12.5355 39.336 11.1607Z" fill="black"/>
<path d="M53.9795 9.09796V12.5043C53.9795 13.3892 54.6183 13.405 55.8305 13.3396V15.2561C52.8666 15.5834 51.8665 14.7166 51.8665 12.5043V9.09796H50.4421V7.06632H51.8665V4.77283H53.9795V7.06632H55.8305V9.09796H53.9795Z" fill="black"/>
<path d="M77.3325 7.06582V15.2533H75.2196V14.2872C74.6304 15.0231 73.7455 15.4836 72.5491 15.4836C70.3707 15.4836 68.5693 13.6009 68.5693 11.1607C68.5693 8.72048 70.3707 6.83783 72.5491 6.83783C73.7455 6.83783 74.6304 7.29608 75.2196 8.03424V7.06808H77.3325V7.06582ZM75.2196 11.1607C75.2196 9.78371 74.2534 8.85141 72.9441 8.85141C71.6349 8.85141 70.6845 9.78371 70.6845 11.1607C70.6845 12.5377 71.6507 13.47 72.9441 13.47C74.2376 13.47 75.2196 12.5355 75.2196 11.1607Z" fill="black"/>
<path d="M91.459 10.2111V15.2541H89.3461V10.3578C89.3461 9.39166 88.854 8.80248 87.9714 8.80248C87.0368 8.80248 86.4476 9.42552 86.4476 10.6535V15.2563H84.3347V10.3601C84.3347 9.39391 83.8426 8.80474 82.9577 8.80474C82.0728 8.80474 81.4182 9.42778 81.4182 10.6558V15.2586H79.3053V7.06656H81.4182V7.93339C81.8765 7.24715 82.6462 6.8363 83.6936 6.8363C84.7411 6.8363 85.4634 7.26295 85.9217 8.01466C86.4296 7.27875 87.249 6.8363 88.3619 6.8363C90.2288 6.8363 91.4568 8.16364 91.4568 10.2111H91.459Z" fill="black"/>
<path d="M102.195 11.1614C102.195 13.6017 100.394 15.4843 98.1994 15.4843C97.003 15.4843 96.1362 15.0419 95.547 14.2879V18.5295H93.4341V7.06656H95.547V8.03271C96.1362 7.27875 97.0053 6.8363 98.1994 6.8363C100.394 6.8363 102.195 8.71896 102.195 11.1592V11.1614ZM100.082 11.1614C100.082 9.78444 99.1159 8.85214 97.8066 8.85214C96.4974 8.85214 95.547 9.78444 95.547 11.1614C95.547 12.5384 96.5132 13.4707 97.8066 13.4707C99.1001 13.4707 100.082 12.5362 100.082 11.1614Z" fill="black"/>
<path d="M111.308 7.06628V15.2538H109.195V14.3373C108.703 15.0732 107.852 15.484 106.755 15.484C105.019 15.484 103.66 14.2718 103.66 12.0935V7.06628H105.773V11.8316C105.773 12.9445 106.446 13.5179 107.394 13.5179C108.425 13.5179 109.195 12.9129 109.195 11.4862V7.06403H111.308V7.06628Z" fill="black"/>
<path d="M45.4172 9.39172C45.4172 8.94927 45.8438 8.72128 46.3675 8.72128C46.6317 8.72128 46.8664 8.78448 47.0696 8.8951C47.3721 9.04634 47.6181 9.27434 47.7965 9.4933L49.4782 8.57681C48.8394 7.44586 47.6926 6.84088 46.3675 6.84088C44.6813 6.84088 43.2569 7.77544 43.2569 9.4459C43.2569 12.3286 47.4804 11.6717 47.4804 12.8681C47.4804 13.3421 47.0222 13.5724 46.3517 13.5724C46.2592 13.5724 46.1712 13.5656 46.0854 13.5566C45.8483 13.5295 45.6407 13.4618 45.4578 13.3647C45.0921 13.1819 44.8122 12.8974 44.6 12.5904L42.9115 13.5408C43.5007 14.8027 44.7129 15.4889 46.3495 15.4889C48.1012 15.4889 49.6407 14.6379 49.6407 12.8681C49.6407 9.85448 45.4149 10.6084 45.4149 9.39623L45.4172 9.39172Z" fill="black"/>
<path d="M115.276 9.39172C115.276 8.94927 115.703 8.72128 116.227 8.72128C116.491 8.72128 116.726 8.78448 116.929 8.8951C117.231 9.04634 117.477 9.27434 117.656 9.4933L119.337 8.57681C118.699 7.44586 117.552 6.84088 116.227 6.84088C114.541 6.84088 113.116 7.77544 113.116 9.4459C113.116 12.3286 117.34 11.6717 117.34 12.8681C117.34 13.3421 116.881 13.5724 116.211 13.5724C116.118 13.5724 116.03 13.5656 115.945 13.5566C115.708 13.5295 115.5 13.4618 115.317 13.3647C114.951 13.1819 114.671 12.8974 114.459 12.5904L112.771 13.5408C113.36 14.8027 114.572 15.4889 116.209 15.4889C117.96 15.4889 119.5 14.6379 119.5 12.8681C119.5 9.85448 115.274 10.6084 115.274 9.39623L115.276 9.39172Z" fill="black"/>
<path d="M66.0474 12.3526C65.6726 12.9982 64.9864 13.3887 64.1534 13.3887C64.1421 13.3887 64.1331 13.3887 64.1218 13.3887C64.1105 13.3887 64.0992 13.3887 64.088 13.3887C62.8261 13.3887 61.8938 12.4542 61.8938 11.1607C61.8938 9.86723 62.8283 8.91688 64.088 8.91688C64.1015 8.91688 64.1128 8.91688 64.1263 8.91913C64.1354 8.91913 64.1444 8.91913 64.1534 8.91913C64.9887 8.91913 65.6749 9.31192 66.0496 9.95978L67.772 8.95074C67.1016 7.68886 65.7088 6.83783 64.1038 6.83783C61.6139 6.83783 59.7809 8.72048 59.7809 11.1607C59.7809 13.6009 61.6161 15.4836 64.1038 15.4836C65.7088 15.4836 67.1016 14.6326 67.8059 13.3549L66.0496 12.3503L66.0474 12.3526Z" fill="black"/>
</g>
<defs>
<clipPath id="clip0_130_53">
<rect width="119" height="18" fill="white" transform="translate(0.5 0.5)"/>
</clipPath>
</defs>
</svg>
